<svg width="497" height="425" viewBox="0 0 497 425" fill="none" xmlns="http://www.w3.org/2000/svg">
<path d="M334.519 152.653C299.278 152.653 263.406 151.307 229.849 142.525C196.924 133.94 166.694 117.285 139.747 98.0186C122.106 85.4777 106.064 75.4688 83.1599 76.9721C60.7526 78.1114 39.3249 85.9735 22.0253 99.4032C-7.11044 123.377 -2.73166 167.804 8.93107 198.899C26.4462 245.859 79.7495 278.576 125.053 299.741C177.388 324.308 234.902 338.59 292.542 346.779C343.066 354.019 407.99 359.241 451.778 328.264C491.987 299.741 503.018 234.702 493.166 190.789C490.776 177.817 483.424 166.111 472.493 157.875C444.241 138.45 402.096 151.426 370.349 152.059C358.56 152.296 346.561 152.573 334.519 152.653Z" fill="#E6E6E6"/>
<path d="M249.589 424.344C335.197 424.344 404.596 420.101 404.596 414.867C404.596 409.632 335.197 405.389 249.589 405.389C163.98 405.389 94.5811 409.632 94.5811 414.867C94.5811 420.101 163.98 424.344 249.589 424.344Z" fill="#F2F2F2"/>
<path d="M31.5273 64.8743L86.2165 60.5021C93.0361 59.9379 99.854 61.6042 105.529 65.222C111.203 68.8398 115.391 74.1896 117.389 80.3758L169.807 246.122L159.542 263.491C156.905 267.967 155.604 273.034 155.776 278.154C155.948 283.273 157.588 288.252 160.52 292.561C163.452 296.869 167.566 300.344 172.424 302.617C177.283 304.889 182.703 305.874 188.107 305.464L398.029 288.612" stroke="#BABABA" stroke-linecap="round" stroke-linejoin="round"/>
<path d="M124.794 105.315L369.991 85.7235C372.406 85.5286 374.838 85.8484 377.104 86.6592C379.37 87.47 381.414 88.751 383.083 90.4072C384.752 92.0634 386.003 94.0523 386.745 96.2263C387.486 98.4004 387.699 100.704 387.366 102.966L370.752 215.936C370.247 219.325 368.547 222.456 365.925 224.825C363.302 227.194 359.91 228.664 356.294 228.997L169.606 246.16L124.794 105.315Z" fill="white" stroke="#BABABA" stroke-linecap="round" stroke-linejoin="round"/>
<path d="M211.493 342.202C222.376 342.202 231.198 333.999 231.198 323.879C231.198 313.759 222.376 305.555 211.493 305.555C200.611 305.555 191.789 313.759 191.789 323.879C191.789 333.999 200.611 342.202 211.493 342.202Z" fill="white" stroke="#BABABA" stroke-linecap="round" stroke-linejoin="round"/>
<path d="M350.081 332.093C361.326 332.093 370.442 323.606 370.442 313.137C370.442 302.668 361.326 294.182 350.081 294.182C338.836 294.182 329.72 302.668 329.72 313.137C329.72 323.606 338.836 332.093 350.081 332.093Z" fill="white" stroke="#BABABA" stroke-linecap="round" stroke-linejoin="round"/>
<path d="M74.8974 56.1021L23.2555 60.2243C18.7802 60.5815 15.4602 64.284 15.8399 68.494C16.2196 72.7041 20.1554 75.8274 24.6306 75.4701L76.2725 71.348C80.7478 70.9907 84.0679 67.2882 83.6881 63.0782C83.3084 58.8682 79.3727 55.7449 74.8974 56.1021Z" fill="#D2D2D2"/>
<path d="M228.57 191.821C229.57 184.595 233.149 177.909 238.712 172.874C244.275 167.838 251.489 164.755 259.156 164.135C266.824 163.516 274.485 165.397 280.868 169.468C287.252 173.539 291.974 179.554 294.252 186.515" stroke="#BABABA" stroke-linecap="round" stroke-linejoin="round"/>
<path d="M294.909 150.117C297.448 150.117 299.507 148.137 299.507 145.694C299.507 143.252 297.448 141.271 294.909 141.271C292.37 141.271 290.312 143.252 290.312 145.694C290.312 148.137 292.37 150.117 294.909 150.117Z" fill="#BABABA"/>
<path d="M220.032 155.172C222.571 155.172 224.63 153.192 224.63 150.749C224.63 148.306 222.571 146.326 220.032 146.326C217.493 146.326 215.435 148.306 215.435 150.749C215.435 153.192 217.493 155.172 220.032 155.172Z" fill="#BABABA"/>
<path d="M86.6992 318.191V335.883" stroke="#BABABA" stroke-linecap="round" stroke-linejoin="round"/>
<path d="M78.8174 327.037H95.8945" stroke="#BABABA" stroke-linecap="round" stroke-linejoin="round"/>
<path d="M377.011 1V17.4283" stroke="#BABABA" stroke-linecap="round" stroke-linejoin="round"/>
<path d="M367.814 9.8457H386.205" stroke="#BABABA" stroke-linecap="round" stroke-linejoin="round"/>
<path d="M162.89 51.5488V69.2408" stroke="#BABABA" stroke-linecap="round" stroke-linejoin="round"/>
<path d="M153.694 60.3945H170.771" stroke="#BABABA" stroke-linecap="round" stroke-linejoin="round"/>
<path d="M422.33 114.735C424.869 114.735 426.928 112.754 426.928 110.312C426.928 107.869 424.869 105.889 422.33 105.889C419.791 105.889 417.732 107.869 417.732 110.312C417.732 112.754 419.791 114.735 422.33 114.735Z" fill="white" stroke="#BABABA" stroke-linecap="round" stroke-linejoin="round"/>
<path d="M261.412 78.0862C263.588 78.0862 265.352 76.3888 265.352 74.295C265.352 72.2013 263.588 70.5039 261.412 70.5039C259.235 70.5039 257.471 72.2013 257.471 74.295C257.471 76.3888 259.235 78.0862 261.412 78.0862Z" fill="#CFCFCF"/>
<path d="M288.998 359.895C291.174 359.895 292.938 358.197 292.938 356.104C292.938 354.01 291.174 352.312 288.998 352.312C286.821 352.312 285.057 354.01 285.057 356.104C285.057 358.197 286.821 359.895 288.998 359.895Z" fill="#CFCFCF"/>
</svg>
