<svg width="17" height="18" viewBox="0 0 17 18" fill="none" xmlns="http://www.w3.org/2000/svg">
<path d="M4.75 3.11168H4.00018C2.95008 3.11168 2.42464 3.11168 2.02356 3.29346C1.67076 3.45336 1.38413 3.70832 1.20436 4.02215C1 4.37891 1 4.8463 1 5.78037V6.44734M4.75 3.11168H12.25M4.75 3.11168V1.44385M12.25 3.11168H13.0002C14.0503 3.11168 14.5746 3.11168 14.9757 3.29346C15.3285 3.45336 15.6161 3.70832 15.7958 4.02215C16 4.37857 16 4.84538 16 5.77763V6.44734M12.25 3.11168V1.44385M1 6.44734V13.786C1 14.72 1 15.1868 1.20436 15.5436C1.38413 15.8574 1.67076 16.1128 2.02356 16.2727C2.42425 16.4543 2.94906 16.4543 3.9971 16.4543H13.0029C14.0509 16.4543 14.575 16.4543 14.9757 16.2727C15.3285 16.1128 15.6161 15.8574 15.7958 15.5436C16 15.1872 16 14.721 16 13.7888V6.44734M1 6.44734H16M12.25 13.1187H12.2519L12.2518 13.1203L12.25 13.1203V13.1187ZM8.5 13.1187H8.50187L8.50183 13.1203L8.5 13.1203V13.1187ZM4.75 13.1187H4.75187L4.75183 13.1203L4.75 13.1203V13.1187ZM12.2518 9.783V9.78467L12.25 9.78463V9.783H12.2518ZM8.5 9.783H8.50187L8.50183 9.78467L8.5 9.78463V9.783ZM4.75 9.783H4.75187L4.75183 9.78467L4.75 9.78463V9.783Z" stroke="white" stroke-width="2" stroke-linecap="round" stroke-linejoin="round"/>
</svg>
