<svg width="36" height="36" viewBox="0 0 36 36" fill="none" xmlns="http://www.w3.org/2000/svg">
<path fill-rule="evenodd" clip-rule="evenodd" d="M11.3023 0C5.06023 0 0 5.06023 0 11.3023V24.6977C0 30.9397 5.06023 36 11.3023 36H24.6977C30.9397 36 36 30.9397 36 24.6977V11.3023C36 5.06023 30.9397 0 24.6977 0H11.3023ZM25.5856 14.7019C26.0761 14.2115 26.0761 13.4164 25.5856 12.9259C25.0952 12.4355 24.3002 12.4355 23.8097 12.9259L16.0634 20.6722C15.8999 20.8356 15.6349 20.8356 15.4715 20.6722L12.1903 17.391C11.6999 16.9006 10.9048 16.9006 10.4143 17.391C9.92391 17.8815 9.92391 18.6766 10.4143 19.1671L13.6955 22.4481C14.8397 23.5926 16.6951 23.5926 17.8394 22.4481L25.5856 14.7019Z" fill="#FF5C5C"/>
</svg>
