<svg width="26" height="26" viewBox="0 0 26 26" fill="none" xmlns="http://www.w3.org/2000/svg">
<path d="M17.1017 3.32812H8.96775C5.43464 3.32812 3.32837 5.43335 3.32837 8.96469V17.0848C3.32837 20.6259 5.43464 22.7311 8.96775 22.7311H17.0919C20.625 22.7311 22.7313 20.6259 22.7313 17.0945V8.96469C22.741 5.43335 20.6348 3.32812 17.1017 3.32812Z" fill="#FF5C5C"/>
<path d="M14.4886 12.633L17.3577 9.76492C17.7194 9.40329 17.7194 8.80473 17.3577 8.4431C16.9959 8.08147 16.3972 8.08147 16.0354 8.4431L13.1663 11.3112L10.2972 8.4431C9.93544 8.08147 9.33667 8.08147 8.97493 8.4431C8.61317 8.80473 8.61317 9.40329 8.97493 9.76492L11.844 12.633L8.97493 15.5011C8.61317 15.8627 8.61317 16.4613 8.97493 16.8229C9.16204 17.01 9.39904 17.0972 9.63605 17.0972C9.87306 17.0972 10.1101 17.01 10.2972 16.8229L13.1663 13.9548L16.0354 16.8229C16.2225 17.01 16.4595 17.0972 16.6965 17.0972C16.9335 17.0972 17.1706 17.01 17.3577 16.8229C17.7194 16.4613 17.7194 15.8627 17.3577 15.5011L14.4886 12.633Z" fill="white"/>
</svg>
