<svg width="26" height="26" viewBox="0 0 26 26" fill="none" xmlns="http://www.w3.org/2000/svg">
<path d="M25.5558 13.3282C25.5558 19.6663 20.8836 24.9061 14.8144 25.7566C14.2467 25.8361 13.6661 25.8773 13.0769 25.8773C12.3964 25.8773 11.7288 25.8224 11.0778 25.7169C5.1365 24.755 0.5979 19.5738 0.5979 13.3274C0.5979 6.39673 6.18492 0.77832 13.0769 0.77832C19.9688 0.77832 25.5558 6.39673 25.5558 13.3274V13.3282Z" fill="#726D6D"/>
<path d="M14.8144 10.8553V13.589H18.1774L17.6449 17.2722H14.8144V25.7573C14.2467 25.8368 13.6661 25.878 13.0768 25.878C12.3963 25.878 11.7288 25.8231 11.0777 25.7176V17.2722H7.97632V13.589H11.0777V10.2447C11.0777 8.16932 12.7506 6.48633 14.8151 6.48633V6.4885C14.8208 6.4885 14.8266 6.48633 14.8323 6.48633H18.1781V9.67094H15.9922C15.3418 9.67094 14.8151 10.2006 14.8151 10.8546L14.8144 10.8553Z" fill="white"/>
</svg>
