<svg width="38" height="22" viewBox="0 0 38 22" fill="none" xmlns="http://www.w3.org/2000/svg">
<path d="M32.6326 17.9003H37V12.062L32.6734 10.127L29.8772 5.12988H23.509" stroke="#484848" stroke-width="1.2" stroke-linecap="round" stroke-linejoin="round"/>
<path d="M12.074 17.9001H26.6089" stroke="#484848" stroke-width="1.2" stroke-linecap="round" stroke-linejoin="round"/>
<path d="M5.93983 1.24341H1.15088V17.9005H6.03007" stroke="#484848" stroke-width="1.2" stroke-linecap="round" stroke-linejoin="round"/>
<path d="M23.402 15.1243V1.24341H5.60107" stroke="#484848" stroke-width="1.2" stroke-linecap="round" stroke-linejoin="round"/>
<path d="M25.8745 12.3486H27.1107" stroke="#484848" stroke-width="1.2" stroke-linecap="round" stroke-linejoin="round"/>
<path d="M29.6327 20.9542C31.2542 20.9542 32.5686 19.7734 32.5686 18.3168C32.5686 16.8602 31.2542 15.6794 29.6327 15.6794C28.0112 15.6794 26.6968 16.8602 26.6968 18.3168C26.6968 19.7734 28.0112 20.9542 29.6327 20.9542Z" stroke="#484848" stroke-width="1.2" stroke-linecap="round" stroke-linejoin="round"/>
<path d="M9.02528 20.9542C10.6467 20.9542 11.9612 19.7734 11.9612 18.3168C11.9612 16.8602 10.6467 15.6794 9.02528 15.6794C7.40381 15.6794 6.08936 16.8602 6.08936 18.3168C6.08936 19.7734 7.40381 20.9542 9.02528 20.9542Z" stroke="#484848" stroke-width="1.2" stroke-linecap="round" stroke-linejoin="round"/>
<path d="M23.4021 10.127H32.6734" stroke="#484848" stroke-width="1.2" stroke-linejoin="round"/>
<path d="M1.15088 15.6794H37" stroke="#484848" stroke-width="1.2" stroke-linejoin="round"/>
</svg>
