<svg width="26" height="26" viewBox="0 0 26 26" fill="none" xmlns="http://www.w3.org/2000/svg">
<path d="M25.8589 12.88C25.8589 19.2183 21.1867 24.4581 15.1176 25.3086C14.5499 25.3881 13.9693 25.4293 13.38 25.4293C12.6995 25.4293 12.032 25.3744 11.3809 25.2689C5.4397 24.307 0.901123 19.1258 0.901123 12.8793C0.901123 5.94855 6.48811 0.330078 13.38 0.330078C20.272 0.330078 25.8589 5.94855 25.8589 12.8793V12.88Z" fill="#726D6D"/>
<path d="M17.2877 5.34668H9.47171C7.31237 5.34668 5.55615 7.11279 5.55615 9.28431V16.4752C5.55615 18.6467 7.31237 20.4129 9.47171 20.4129H17.2877C19.4471 20.4129 21.2033 18.6467 21.2033 16.4752V9.28431C21.2033 7.11279 19.4471 5.34668 17.2877 5.34668ZM6.93727 9.28431C6.93727 7.87878 8.07406 6.73558 9.47171 6.73558H17.2877C18.6854 6.73558 19.8222 7.87878 19.8222 9.28431V16.4752C19.8222 17.8807 18.6854 19.024 17.2877 19.024H9.47171C8.07406 19.024 6.93727 17.8807 6.93727 16.4752V9.28431Z" fill="white"/>
<path d="M13.3788 16.5428C15.3873 16.5428 17.0213 14.8996 17.0213 12.8798C17.0213 10.8601 15.3873 9.2168 13.3788 9.2168C11.3704 9.2168 9.73633 10.8601 9.73633 12.8798C9.73633 14.8996 11.3704 16.5428 13.3788 16.5428ZM13.3788 10.6064C14.6256 10.6064 15.6395 11.6261 15.6395 12.8798C15.6395 14.1336 14.6256 15.1532 13.3788 15.1532C12.1321 15.1532 11.1182 14.1336 11.1182 12.8798C11.1182 11.6261 12.1321 10.6064 13.3788 10.6064Z" fill="white"/>
<path d="M17.359 9.80773C17.9001 9.80773 18.3406 9.36476 18.3406 8.82061C18.3406 8.27647 17.9001 7.8335 17.359 7.8335C16.8179 7.8335 16.3774 8.27647 16.3774 8.82061C16.3774 9.36476 16.8179 9.80773 17.359 9.80773Z" fill="white"/>
</svg>
