<svg width="16" height="19" viewBox="0 0 16 19" fill="none" xmlns="http://www.w3.org/2000/svg">
<path d="M1 7.63175C1 12.2796 5.2445 16.1231 7.12322 17.5967C7.3921 17.8076 7.52815 17.9143 7.72875 17.9684C7.88495 18.0105 8.11484 18.0105 8.27104 17.9684C8.47201 17.9142 8.60711 17.8085 8.877 17.5968C10.7557 16.1232 15 12.28 15 7.63218C15 5.87327 14.2625 4.18619 12.9498 2.94246C11.637 1.69872 9.85665 1 8.00012 1C6.1436 1 4.36303 1.69883 3.05026 2.94256C1.7375 4.1863 1 5.87284 1 7.63175Z" stroke="white" stroke-width="2" stroke-linecap="round" stroke-linejoin="round"/>
<path d="M6.00003 6.7477C6.00003 7.80583 6.89546 8.6636 8.00004 8.6636C9.10462 8.6636 10.0001 7.80583 10.0001 6.7477C10.0001 5.68958 9.10462 4.8318 8.00004 4.8318C6.89546 4.8318 6.00003 5.68958 6.00003 6.7477Z" stroke="white" stroke-width="2" stroke-linecap="round" stroke-linejoin="round"/>
</svg>
