<svg width="40" height="40" viewBox="0 0 40 40" fill="none" xmlns="http://www.w3.org/2000/svg">
<rect width="40" height="40" rx="8" fill="white" fill-opacity="0.5"/>
<g clip-path="url(#clip0_730_8042)">
<path fill-rule="evenodd" clip-rule="evenodd" d="M33.5777 7.6764V11.13C33.5777 11.6464 33.9974 12.0496 34.5152 12.0496C35.0178 12.0496 35.4527 11.6379 35.4527 11.13V5.46929C35.4527 5.21405 35.3501 4.98648 35.1839 4.82156C35.0115 4.65583 34.784 4.54964 34.533 4.54964L28.8723 4.54964C28.3559 4.54964 27.9527 4.96938 27.9527 5.48714C27.9527 5.98977 28.3644 6.42464 28.8723 6.42464H32.1777L23.2157 15.3866C22.8491 15.7532 22.862 16.334 23.2281 16.7001C23.5835 17.0555 24.1822 17.0718 24.5415 16.7125L33.5777 7.6764ZM7.32953 31.4188V27.9651C7.32953 27.4486 6.9098 27.0454 6.39203 27.0454C5.88941 27.0454 5.45453 27.4571 5.45453 27.9651V33.6258C5.45453 33.881 5.55707 34.1086 5.72329 34.2735C5.89573 34.4392 6.12321 34.5454 6.37418 34.5454H12.0349C12.5513 34.5454 12.9545 34.1257 12.9545 33.6079C12.9545 33.1053 12.5428 32.6704 12.0349 32.6704H8.72948L17.6915 23.7084C18.058 23.3419 18.0452 22.7611 17.6791 22.395C17.3237 22.0396 16.7249 22.0233 16.3657 22.3826L7.32953 31.4188Z" fill="black"/>
</g>
<defs>
<clipPath id="clip0_730_8042">
<rect width="30" height="30" fill="white" transform="matrix(0 -1 1 0 5.45453 34.5454)"/>
</clipPath>
</defs>
</svg>
