<svg width="18" height="18" viewBox="0 0 18 18" fill="none" xmlns="http://www.w3.org/2000/svg">
<path fill-rule="evenodd" clip-rule="evenodd" d="M1.11147 1.75038C2.24347 0.558557 2.64432 0.224247 3.12625 0.069835C3.46028 -0.0178951 3.81069 -0.0230518 4.14715 0.0548439C4.59004 0.183771 4.70564 0.281216 6.15892 1.72489C7.435 2.99317 7.56111 3.13109 7.68422 3.37396C7.92233 3.81108 7.96062 4.32936 7.78931 4.79657C7.6632 5.14887 7.47704 5.38274 6.7039 6.1593L6.19946 6.66451C6.06674 6.79898 6.03527 7.00332 6.12139 7.17122C7.24118 9.07903 8.82958 10.6702 10.7364 11.7946C10.9564 11.9124 11.2273 11.8742 11.406 11.7001L11.8909 11.2234C12.1906 10.9164 12.508 10.6271 12.8413 10.3569C13.364 10.034 14.0167 10.0028 14.5678 10.2745C14.8365 10.4004 14.9266 10.4828 16.2433 11.7931C17.5945 13.1423 17.638 13.1858 17.7896 13.4961C18.0728 14.0102 18.0699 14.6338 17.7821 15.1452C17.632 15.433 17.5479 15.538 16.7852 16.316C16.3243 16.7867 15.8844 17.2155 15.8214 17.2785C15.1916 17.7984 14.3842 18.0537 13.5694 17.9906C12.0789 17.8544 10.6364 17.3939 9.34318 16.6413C6.47695 15.1249 4.03703 12.9154 2.24647 10.2145C1.85491 9.64991 1.50662 9.05655 1.20456 8.4395C0.399711 7.06178 -0.0163813 5.49202 0.000493601 3.89716C0.061027 3.05991 0.462556 2.28401 1.11147 1.75038Z" fill="#666666"/>
</svg>
