<svg width="59" height="26" viewBox="0 0 59 26" fill="none" xmlns="http://www.w3.org/2000/svg">
<path d="M0 12.9112L0 25.8224H44.2623L59.0005 12.9112L44.2623 0L0 0L0 12.9112Z" fill="#CA1E1E"/>
<path d="M7.09534 17.7585V16.7058L8.18225 16.5007V9.07007L7.09534 8.86499V7.80542H8.18225H11.7643C12.5071 7.80542 13.1429 7.9353 13.6715 8.19507C14.2047 8.45483 14.6126 8.81714 14.8951 9.28198C15.1777 9.74227 15.319 10.2823 15.319 10.9021C15.319 11.5219 15.1777 12.0642 14.8951 12.5291C14.6126 12.9893 14.2047 13.3471 13.6715 13.6023C13.1429 13.8575 12.5071 13.9851 11.7643 13.9851H9.90491V16.5007L10.9918 16.7058V17.7585H7.09534ZM9.90491 12.6521H11.7643C12.375 12.6521 12.833 12.488 13.1383 12.1599C13.4436 11.8318 13.5963 11.4171 13.5963 10.9158C13.5963 10.4054 13.4436 9.98153 13.1383 9.64429C12.833 9.30705 12.375 9.13843 11.7643 9.13843H9.90491V12.6521ZM16.1666 17.7585V16.7058L17.192 16.5007V11.6267L16.1119 11.4216V10.3621H18.778L18.8668 11.2917L18.8805 11.4421C19.0765 11.0502 19.3157 10.7494 19.5983 10.5398C19.8854 10.3302 20.2203 10.2253 20.6032 10.2253C20.7308 10.2253 20.8652 10.2367 21.0065 10.2595C21.1523 10.2823 21.2708 10.3074 21.3619 10.3347L21.1637 11.9275L20.1998 11.8728C19.8854 11.8546 19.6256 11.9161 19.4205 12.0574C19.22 12.1987 19.0514 12.3946 18.9147 12.6453V16.5007L19.9401 16.7058V17.7585H16.1666ZM22.066 17.7585V16.7058L23.0914 16.5007V11.6267L22.0045 11.4216V10.3621H24.8141V16.5007L25.8326 16.7058V17.7585H22.066ZM23.0231 8.68726V7.09448H24.8141V8.68726H23.0231ZM30.0367 17.9021C29.344 17.9021 28.7425 17.7449 28.2321 17.4304C27.7262 17.1114 27.3343 16.6739 27.0563 16.1179C26.7828 15.5574 26.6461 14.9125 26.6461 14.1834V13.9441C26.6461 13.2286 26.7828 12.5906 27.0563 12.03C27.3297 11.4695 27.7194 11.0297 28.2252 10.7107C28.7356 10.3871 29.3372 10.2253 30.0299 10.2253C30.6634 10.2253 31.2148 10.3279 31.6842 10.533C32.1536 10.7335 32.5387 10.9841 32.8395 11.2849L32.8463 13.2605H31.5338L31.2809 11.9548C31.1533 11.8227 30.9915 11.7179 30.7955 11.6404C30.5996 11.5584 30.3854 11.5173 30.153 11.5173C29.7747 11.5173 29.4511 11.6199 29.1823 11.825C28.9179 12.03 28.7151 12.3149 28.5739 12.6794C28.4371 13.0395 28.3688 13.461 28.3688 13.9441V14.1834C28.3688 14.7029 28.4394 15.1404 28.5807 15.4959C28.722 15.8513 28.9179 16.1202 29.1686 16.3025C29.4238 16.4848 29.7155 16.5759 30.0436 16.5759C30.4401 16.5759 30.7614 16.4688 31.0074 16.2546C31.2581 16.0404 31.4222 15.7442 31.4996 15.366H32.9899L33.0104 15.407C32.9557 15.8901 32.8121 16.3207 32.5797 16.699C32.3519 17.0727 32.0283 17.3666 31.609 17.5808C31.1943 17.795 30.6702 17.9021 30.0367 17.9021ZM37.5221 17.9021C36.8248 17.9021 36.2164 17.7472 35.6969 17.4373C35.1819 17.1228 34.7809 16.6899 34.4938 16.1384C34.2112 15.587 34.0699 14.9558 34.0699 14.2449V13.9578C34.0699 13.2377 34.2089 12.5974 34.4869 12.0369C34.7695 11.4763 35.1569 11.0343 35.6491 10.7107C36.1412 10.3871 36.7018 10.2253 37.3307 10.2253C38.0006 10.2253 38.5612 10.3598 39.0123 10.6287C39.4681 10.8975 39.8121 11.2804 40.0446 11.7771C40.277 12.2693 40.3932 12.8617 40.3932 13.5544V14.5388H35.8541L35.8405 14.573C35.8587 14.9604 35.9384 15.3044 36.0797 15.6052C36.2255 15.906 36.4306 16.143 36.6949 16.3162C36.9638 16.4893 37.2897 16.5759 37.6725 16.5759C38.0735 16.5759 38.4381 16.5212 38.7662 16.4119C39.0944 16.3025 39.3974 16.1475 39.6754 15.947L40.2155 17.0271C39.9238 17.2732 39.5524 17.4806 39.1012 17.6492C38.65 17.8178 38.1237 17.9021 37.5221 17.9021ZM35.8815 13.3289H38.7457V13.1511C38.7457 12.8276 38.6956 12.545 38.5953 12.3035C38.4996 12.0574 38.347 11.866 38.1373 11.7292C37.9323 11.5925 37.6702 11.5242 37.3512 11.5242C37.0732 11.5242 36.8294 11.6016 36.6198 11.7566C36.4101 11.9115 36.2415 12.1235 36.1139 12.3923C35.9908 12.6567 35.9065 12.9574 35.861 13.2947L35.8815 13.3289Z" fill="white"/>
</svg>
