<svg width="26" height="26" viewBox="0 0 26 26" fill="none" xmlns="http://www.w3.org/2000/svg">
<path d="M1 7.96774V7.36774H0.4V7.96774H1ZM22.6774 7.96774L23.0102 7.46851L22.8591 7.36774H22.6774V7.96774ZM1 23.4516H0.4V23.7727L0.66718 23.9508L1 23.4516ZM25 9.51613H25.6V9.19502L25.3328 9.0169L25 9.51613ZM25 25V25.6C25.3314 25.6 25.6 25.3314 25.6 25H25ZM3.32258 25L2.98976 25.4992L3.14092 25.6H3.32258V25ZM1 23.4516H1.6V7.96774H1H0.4V23.4516H1ZM25 9.51613H24.4V25H25H25.6V9.51613H25ZM25 25V24.4H3.32258V25V25.6H25V25ZM3.32258 25H3.92258V9.51613H3.32258H2.72258V25H3.32258ZM3.32258 9.51613L3.6554 9.0169L1.33282 7.46851L1 7.96774L0.66718 8.46697L2.98976 10.0154L3.32258 9.51613ZM3.32258 25L3.6554 24.5008L1.33282 22.9524L1 23.4516L0.66718 23.9508L2.98976 25.4992L3.32258 25ZM25 9.51613L25.3328 9.0169L23.0102 7.46851L22.6774 7.96774L22.3446 8.46697L24.6672 10.0154L25 9.51613ZM13.3871 1V1.6H14.9355V1V0.4H13.3871V1ZM20.3548 6.41935H19.7548V11.0645H20.3548H20.9548V6.41935H20.3548ZM7.96774 11.0645H8.56774V6.41935H7.96774H7.36774V11.0645H7.96774ZM14.9355 1V1.6C17.5971 1.6 19.7548 3.7577 19.7548 6.41935H20.3548H20.9548C20.9548 3.09496 18.2599 0.4 14.9355 0.4V1ZM13.3871 1V0.4C13.3153 0.4 13.2437 0.40126 13.1725 0.403761L13.1935 1.00339L13.2146 1.60302C13.2718 1.60101 13.3293 1.6 13.3871 1.6V1ZM13.1935 1.00339L13.1725 0.403761C9.94728 0.516974 7.36774 3.16679 7.36774 6.41935H7.96774H8.56774C8.56774 3.81544 10.633 1.69364 13.2146 1.60302L13.1935 1.00339ZM11.4516 1V1.6H13V1V0.4H11.4516V1ZM13 1V1.6C13.0578 1.6 13.1153 1.60101 13.1725 1.60302L13.1935 1.00339L13.2146 0.403761C13.1433 0.40126 13.0718 0.4 13 0.4V1ZM13.1935 1.00339L13.1725 1.60302C15.754 1.69364 17.8194 3.81544 17.8194 6.41935H18.4194H19.0194C19.0194 3.16679 16.4398 0.516974 13.2146 0.403761L13.1935 1.00339ZM11.4516 1V0.4C8.12721 0.4 5.43226 3.09496 5.43226 6.41935H6.03226H6.63226C6.63226 3.7577 8.78996 1.6 11.4516 1.6V1ZM6.03226 7.96774H6.63226V6.41935H6.03226H5.43226V7.96774H6.03226ZM18.4194 6.41935H17.8194V7.96774H18.4194H19.0194V6.41935H18.4194ZM3.32258 9.51613V10.1161H25V9.51613V8.91613H3.32258V9.51613ZM1 7.96774V8.56774H22.6774V7.96774V7.36774H1V7.96774Z" fill="#484848"/>
</svg>
