<svg width="44" height="44" viewBox="0 0 44 44" fill="none" xmlns="http://www.w3.org/2000/svg">
<path d="M38.5 22C38.5 31.1127 31.1127 38.5 22 38.5C12.8873 38.5 5.5 31.1127 5.5 22C5.5 12.8873 12.8873 5.5 22 5.5C31.1127 5.5 38.5 12.8873 38.5 22Z" fill="#FF5C5C"/>
<path d="M20.1667 16.5L25.6667 22L20.1667 27.5M22 38.5C31.1127 38.5 38.5 31.1127 38.5 22C38.5 12.8873 31.1127 5.5 22 5.5C12.8873 5.5 5.5 12.8873 5.5 22C5.5 31.1127 12.8873 38.5 22 38.5Z" stroke="white" stroke-width="2" stroke-linecap="round" stroke-linejoin="round"/>
</svg>
