<svg width="20" height="20" viewBox="0 0 20 20" fill="none" xmlns="http://www.w3.org/2000/svg">
<path d="M5.83317 18.3332V9.1665M1.6665 10.8332V16.6665C1.6665 17.587 2.4127 18.3332 3.33317 18.3332H14.5217C15.7557 18.3332 16.805 17.4329 16.9927 16.2133L17.8901 10.38C18.1231 8.86559 16.9513 7.49984 15.4192 7.49984H12.4998C12.0396 7.49984 11.6665 7.12674 11.6665 6.6665V3.72137C11.6665 2.5865 10.7465 1.6665 9.61167 1.6665C9.34092 1.6665 9.09567 1.82592 8.98575 2.07327L6.05312 8.67159C5.91937 8.97259 5.62094 9.1665 5.29161 9.1665H3.33317C2.4127 9.1665 1.6665 9.91267 1.6665 10.8332Z" stroke="#5A5A5A" stroke-width="1.5" stroke-linecap="round" stroke-linejoin="round"/>
</svg>
