<svg width="26" height="26" viewBox="0 0 26 26" fill="none" xmlns="http://www.w3.org/2000/svg">
<path d="M25.2322 12.88C25.2322 19.2183 20.56 24.4581 14.4909 25.3086C13.9232 25.3881 13.3425 25.4293 12.7533 25.4293C12.0728 25.4293 11.4053 25.3744 10.7542 25.2689C4.81299 24.307 0.274414 19.1258 0.274414 12.8793C0.274414 5.94855 5.86139 0.330078 12.7533 0.330078C19.6452 0.330078 25.2322 5.94855 25.2322 12.8793V12.88Z" fill="#726D6D"/>
<path d="M18.8589 9.36815V11.7658C18.4414 11.7254 17.9011 11.63 17.3011 11.4089C16.5185 11.1205 15.9357 10.726 15.5549 10.4203V15.2677L15.5456 15.2526C15.552 15.3487 15.5549 15.4462 15.5549 15.5452C15.5549 17.953 13.6075 19.9121 11.2125 19.9121C8.81747 19.9121 6.87012 17.9523 6.87012 15.5452C6.87012 13.1381 8.81747 11.1776 11.2125 11.1776C11.4468 11.1776 11.6767 11.1964 11.9016 11.2325V13.5963C11.6853 13.5182 11.4539 13.4763 11.2125 13.4763C10.0786 13.4763 9.15521 14.4042 9.15521 15.5452C9.15521 16.6863 10.0786 17.6141 11.2125 17.6141C12.3464 17.6141 13.2698 16.6855 13.2698 15.5452C13.2698 15.5026 13.2691 15.4599 13.2662 15.4173V5.99707H15.6498C15.6584 6.20013 15.667 6.40464 15.6749 6.6077C15.6907 7.00731 15.8323 7.39103 16.0787 7.70537C16.3683 8.07464 16.7952 8.50388 17.3959 8.84641C17.9578 9.16654 18.4853 9.30384 18.8589 9.36887V9.36815Z" fill="white"/>
</svg>
