<svg width="23" height="26" viewBox="0 0 23 26" fill="none" xmlns="http://www.w3.org/2000/svg">
<path d="M7.5625 5L11.5 1M11.5 1L15.4375 5M11.5 1V14.3333M4.9378 10.3333C3.71471 10.3333 3.10316 10.3333 2.62076 10.5363C1.97756 10.807 1.46624 11.3264 1.19982 11.9798C1 12.4699 1 13.0908 1 14.3333V20.7333C1 22.2268 1 22.973 1.28611 23.5435C1.53778 24.0452 1.93906 24.454 2.43298 24.7096C2.99395 25 3.72868 25 5.19594 25H17.8047C19.272 25 20.0056 25 20.5666 24.7096C21.0605 24.454 21.4625 24.0452 21.7142 23.5435C22 22.9736 22 22.228 22 20.7375V14.3333C22 13.0908 21.9999 12.4699 21.8 11.9798C21.5336 11.3264 21.0227 10.807 20.3795 10.5363C19.8971 10.3333 19.2856 10.3333 18.0625 10.3333" stroke="#272727" stroke-width="2" stroke-linecap="round" stroke-linejoin="round"/>
</svg>
