<svg width="17" height="17" viewBox="0 0 17 17" fill="none" xmlns="http://www.w3.org/2000/svg">
<path d="M8.49315 15.6557L6.21612 16.9175L4.97578 14.6123L2.385 14.43L2.57514 11.8133L0.493164 10.2449L2.05343 8.14745L1.14128 5.69084L3.57629 4.77856L4.12356 2.21371L6.66022 2.77625L8.49315 0.91748L10.3261 2.77625L12.8628 2.21371L13.41 4.77856L15.845 5.69084L14.9329 8.14745L16.4932 10.2449L14.4112 11.8133L14.6013 14.43L12.0105 14.6123L10.7702 16.9175L8.49315 15.6557Z" fill="#2E77D0"/>
<path d="M11.7689 5.96094L7.29432 11.2536L5.40562 9.0189L5.07324 9.41186L7.29432 12.0395L12.1528 6.29215L11.7689 5.96094Z" fill="white"/>
</svg>
