<svg width="25" height="26" viewBox="0 0 25 26" fill="none" xmlns="http://www.w3.org/2000/svg">
<path d="M25.0047 13.4313C25.0047 19.7695 20.3325 25.0093 14.2633 25.8599C13.6956 25.9394 13.115 25.9806 12.5258 25.9806C11.8453 25.9806 11.1777 25.9256 10.5267 25.8201C4.58545 24.8583 0.046875 19.677 0.046875 13.4306C0.046875 6.49982 5.63386 0.881348 12.5258 0.881348C19.4177 0.881348 25.0047 6.49982 25.0047 13.4306V13.4313Z" fill="#726D6D"/>
<path d="M20.4559 10.8076C20.3574 9.84501 20.144 8.78202 19.3593 8.2227C18.7507 7.78912 17.9516 7.77322 17.2057 7.77395C15.6285 7.77539 14.0512 7.77684 12.4739 7.77829C10.9569 7.77973 9.44003 7.78117 7.9231 7.78262C7.28931 7.78262 6.67348 7.73348 6.08496 8.0088C5.57908 8.24583 5.18386 8.69603 4.94672 9.19682C4.61618 9.89416 4.54648 10.6833 4.50696 11.4543C4.43366 12.8577 4.44157 14.2654 4.52996 15.6673C4.59391 16.6912 4.75702 17.8222 5.54387 18.4747C6.24161 19.0528 7.22607 19.081 8.13005 19.0817C11.0015 19.0839 13.873 19.086 16.7444 19.0889C17.1123 19.0889 17.4968 19.0824 17.8719 19.0412C18.6106 18.961 19.3141 18.7486 19.7883 18.1986C20.2669 17.6444 20.3898 16.8719 20.4631 16.1413C20.6399 14.3694 20.6377 12.5787 20.4559 10.8076ZM10.8132 15.9166V10.9463L15.0938 13.4314L10.8132 15.9166Z" fill="white"/>
</svg>
