<svg width="44" height="44" viewBox="0 0 44 44" fill="none" xmlns="http://www.w3.org/2000/svg">
<rect width="44" height="44" rx="12" fill="white" fill-opacity="0.7"/>
<path fill-rule="evenodd" clip-rule="evenodd" d="M19.9165 24.0833C19.9165 24.7967 20.4948 25.375 21.2082 25.375C21.9216 25.375 22.4998 24.7967 22.4998 24.0833V21.5H25.0832C25.7966 21.5 26.3748 20.9217 26.3748 20.2083C26.3748 19.4949 25.7966 18.9166 25.0832 18.9166H22.4998V16.3333C22.4998 15.6199 21.9216 15.0416 21.2082 15.0416C20.4948 15.0416 19.9165 15.6199 19.9165 16.3333V18.9166H17.3332C16.6198 18.9166 16.0415 19.4949 16.0415 20.2083C16.0415 20.9217 16.6198 21.5 17.3332 21.5H19.9165V24.0833Z" fill="black"/>
<path d="M21.3333 30.6667C27.0403 30.6667 31.6667 26.0403 31.6667 20.3333C31.6667 14.6264 27.0403 10 21.3333 10C15.6264 10 11 14.6264 11 20.3333C11 26.0403 15.6264 30.6667 21.3333 30.6667Z" stroke="black" stroke-width="2.5" stroke-linecap="round" stroke-linejoin="round"/>
<path d="M36.575 35.575L29.3417 28.3417" stroke="black" stroke-width="2.5" stroke-linecap="round" stroke-linejoin="round"/>
</svg>
